<svg xmlns="http://www.w3.org/2000/svg" width="24" height="24" viewBox="0 0 24 24" fill="none">
  <path d="M22 12.2273C22 11.5182 21.9351 10.8364 21.8145 10.1818H12.2041V14.0545H17.6957C17.4545 15.3 16.731 16.3545 15.6456 17.0636V19.5818H18.9573C20.8868 17.8364 22 15.2727 22 12.2273Z" fill="#4285F4"/>
  <path d="M12.2041 22C14.9592 22 17.269 21.1091 18.9573 19.5818L15.6456 17.0636C14.7365 17.6636 13.577 18.0273 12.2041 18.0273C9.55102 18.0273 7.29685 16.2727 6.4898 13.9091H3.09462V16.4909C4.77365 19.7545 8.21521 22 12.2041 22Z" fill="#34A853"/>
  <path d="M6.4898 13.9C6.28571 13.3 6.16512 12.6636 6.16512 12C6.16512 11.3364 6.28571 10.7 6.4898 10.1V7.51818H3.09462C2.39889 8.86364 2 10.3818 2 12C2 13.6182 2.39889 15.1364 3.09462 16.4818L5.7384 14.4636L6.4898 13.9Z" fill="#FBBC05"/>
  <path d="M12.2041 5.98182C13.7069 5.98182 15.0427 6.49091 16.1095 7.47273L19.0315 4.60909C17.2597 2.99091 14.9592 2 12.2041 2C8.21521 2 4.77365 4.24546 3.09462 7.51818L6.4898 10.1C7.29685 7.73636 9.55102 5.98182 12.2041 5.98182Z" fill="#EA4335"/>
</svg>
